<svg width="25" height="20" viewBox="0 0 25 20" fill="none" xmlns="http://www.w3.org/2000/svg">
<path d="M3.125 5.83333C3.125 5.3731 3.4981 5 3.95833 5H21.0417C21.5019 5 21.875 5.3731 21.875 5.83333C21.875 6.29357 21.5019 6.66667 21.0417 6.66667H3.95833C3.4981 6.66667 3.125 6.29357 3.125 5.83333ZM3.125 10C3.125 9.53976 3.4981 9.16667 3.95833 9.16667H21.0417C21.5019 9.16667 21.875 9.53976 21.875 10C21.875 10.4602 21.5019 10.8333 21.0417 10.8333H3.95833C3.4981 10.8333 3.125 10.4602 3.125 10ZM3.125 14.1667C3.125 13.7064 3.4981 13.3333 3.95833 13.3333H21.0417C21.5019 13.3333 21.875 13.7064 21.875 14.1667C21.875 14.6269 21.5019 15 21.0417 15H3.95833C3.4981 15 3.125 14.6269 3.125 14.1667Z" fill="black"/>
</svg>
